<?xml version="1.0" encoding="UTF-8" standalone="no"?>
<!DOCTYPE svg PUBLIC "-//W3C//DTD SVG 1.1//EN"
 "http://www.w3.org/Graphics/SVG/1.1/DTD/svg11.dtd">
<!-- Generated by graphviz version 2.43.0 (0)
 -->
<!-- Title: %3 Pages: 1 -->
<svg width="124pt" height="87pt"
 viewBox="0.00 0.00 124.00 87.00" xmlns="http://www.w3.org/2000/svg" xmlns:xlink="http://www.w3.org/1999/xlink">
<g id="graph0" class="graph" transform="scale(1 1) rotate(0) translate(4 83)">
<title>%3</title>
<polygon fill="white" stroke="transparent" points="-4,4 -4,-83 120,-83 120,4 -4,4"/>
<text text-anchor="middle" x="58" y="-63.8" font-family="Courier, monospace" font-size="14.00">New Block: 0</text>
<!-- bb_0 -->
<g id="node1" class="node">
<title>bb_0</title>
<polygon fill="gray" stroke="transparent" points="43,-31 43,-52 74,-52 74,-31 43,-31"/>
<polygon fill="none" stroke="black" points="43,-31 43,-52 74,-52 74,-31 43,-31"/>
<text text-anchor="start" x="54" y="-37.8" font-family="Courier, monospace" font-size="14.00">0</text>
<polygon fill="none" stroke="black" points="43,-25 43,-31 74,-31 74,-25 43,-25"/>
<polygon fill="none" stroke="black" points="43,-4 43,-25 74,-25 74,-4 43,-4"/>
<text text-anchor="start" x="46" y="-10.8" font-family="Courier, monospace" font-size="14.00">???</text>
</g>
</g>
</svg>
