<?xml version="1.0" encoding="UTF-8" standalone="no"?>
<!DOCTYPE svg PUBLIC "-//W3C//DTD SVG 1.1//EN"
 "http://www.w3.org/Graphics/SVG/1.1/DTD/svg11.dtd">
<!-- Generated by graphviz version 2.43.0 (0)
 -->
<!-- Title: %3 Pages: 1 -->
<svg width="270pt" height="132pt"
 viewBox="0.00 0.00 270.00 132.00" xmlns="http://www.w3.org/2000/svg" xmlns:xlink="http://www.w3.org/1999/xlink">
<g id="graph0" class="graph" transform="scale(1 1) rotate(0) translate(4 128)">
<title>%3</title>
<polygon fill="white" stroke="transparent" points="-4,4 -4,-128 266,-128 266,4 -4,4"/>
<text text-anchor="middle" x="131" y="-108.8" font-family="Courier, monospace" font-size="14.00">Read Var n</text>
<!-- bb_0 -->
<g id="node1" class="node">
<title>bb_0</title>
<polygon fill="green" stroke="transparent" points="8.5,-75.5 8.5,-96.5 105.5,-96.5 105.5,-75.5 8.5,-75.5"/>
<polygon fill="none" stroke="black" points="8.5,-75.5 8.5,-96.5 105.5,-96.5 105.5,-75.5 8.5,-75.5"/>
<text text-anchor="start" x="36" y="-82.3" font-family="Courier, monospace" font-size="14.00">0 ←[]</text>
<polygon fill="none" stroke="black" points="8.5,-24.5 8.5,-75.5 105.5,-75.5 105.5,-24.5 8.5,-24.5"/>
<text text-anchor="start" x="11.5" y="-61.3" font-family="Courier, monospace" font-size="14.00">%cur_1 = 1</text>
<text text-anchor="start" x="11.5" y="-46.3" font-family="Courier, monospace" font-size="14.00">%prev_2 = 0</text>
<text text-anchor="start" x="11.5" y="-31.3" font-family="Courier, monospace" font-size="14.00">%n_3 = 10</text>
<polygon fill="none" stroke="black" points="8.5,-3.5 8.5,-24.5 105.5,-24.5 105.5,-3.5 8.5,-3.5"/>
<text text-anchor="start" x="11.5" y="-10.3" font-family="Courier, monospace" font-size="14.00">GOTO 1</text>
</g>
<!-- bb_1 -->
<g id="node2" class="node">
<title>bb_1</title>
<polygon fill="gray" stroke="transparent" points="157.5,-60.5 157.5,-81.5 254.5,-81.5 254.5,-60.5 157.5,-60.5"/>
<polygon fill="none" stroke="black" points="157.5,-60.5 157.5,-81.5 254.5,-81.5 254.5,-60.5 157.5,-60.5"/>
<text text-anchor="start" x="201.5" y="-67.3" font-family="Courier, monospace" font-size="14.00">1</text>
<polygon fill="none" stroke="black" points="157.5,-39.5 157.5,-60.5 254.5,-60.5 254.5,-39.5 157.5,-39.5"/>
<text text-anchor="start" x="160.5" y="-46.3" font-family="Courier, monospace" font-size="14.00">%n_5 = ψ(n)</text>
<polygon fill="none" stroke="black" points="157.5,-18.5 157.5,-39.5 254.5,-39.5 254.5,-18.5 157.5,-18.5"/>
<text text-anchor="start" x="160.5" y="-25.3" font-family="Courier, monospace" font-size="14.00">???</text>
</g>
<!-- bb_0&#45;&gt;bb_1 -->
<g id="edge1" class="edge">
<title>bb_0&#45;&gt;bb_1</title>
<path fill="none" stroke="black" d="M113.07,-50.5C121.49,-50.5 130.24,-50.5 138.84,-50.5"/>
<polygon fill="black" stroke="black" points="138.85,-54 148.85,-50.5 138.85,-47 138.85,-54"/>
</g>
</g>
</svg>
