<?xml version="1.0" encoding="UTF-8" standalone="no"?>
<!DOCTYPE svg PUBLIC "-//W3C//DTD SVG 1.1//EN"
 "http://www.w3.org/Graphics/SVG/1.1/DTD/svg11.dtd">
<!-- Generated by graphviz version 2.43.0 (0)
 -->
<!-- Title: %3 Pages: 1 -->
<svg width="303pt" height="207pt"
 viewBox="0.00 0.00 303.00 206.50" xmlns="http://www.w3.org/2000/svg" xmlns:xlink="http://www.w3.org/1999/xlink">
<g id="graph0" class="graph" transform="scale(1 1) rotate(0) translate(4 202.5)">
<title>%3</title>
<polygon fill="white" stroke="transparent" points="-4,4 -4,-202.5 299,-202.5 299,4 -4,4"/>
<text text-anchor="middle" x="147.5" y="-183.3" font-family="Courier, monospace" font-size="14.00">New Block: 2</text>
<!-- bb_0 -->
<g id="node1" class="node">
<title>bb_0</title>
<polygon fill="green" stroke="transparent" points="8.5,-75.5 8.5,-96.5 105.5,-96.5 105.5,-75.5 8.5,-75.5"/>
<polygon fill="none" stroke="black" points="8.5,-75.5 8.5,-96.5 105.5,-96.5 105.5,-75.5 8.5,-75.5"/>
<text text-anchor="start" x="36" y="-82.3" font-family="Courier, monospace" font-size="14.00">0 ←[]</text>
<polygon fill="none" stroke="black" points="8.5,-24.5 8.5,-75.5 105.5,-75.5 105.5,-24.5 8.5,-24.5"/>
<text text-anchor="start" x="11.5" y="-61.3" font-family="Courier, monospace" font-size="14.00">%cur_1 = 1</text>
<text text-anchor="start" x="11.5" y="-46.3" font-family="Courier, monospace" font-size="14.00">%prev_2 = 0</text>
<text text-anchor="start" x="11.5" y="-31.3" font-family="Courier, monospace" font-size="14.00">%n_3 = 10</text>
<polygon fill="none" stroke="black" points="8.5,-3.5 8.5,-24.5 105.5,-24.5 105.5,-3.5 8.5,-3.5"/>
<text text-anchor="start" x="11.5" y="-10.3" font-family="Courier, monospace" font-size="14.00">GOTO 1</text>
</g>
<!-- bb_1 -->
<g id="node2" class="node">
<title>bb_1</title>
<polygon fill="gray" stroke="transparent" points="157,-75.5 157,-96.5 287,-96.5 287,-75.5 157,-75.5"/>
<polygon fill="none" stroke="black" points="157,-75.5 157,-96.5 287,-96.5 287,-75.5 157,-75.5"/>
<text text-anchor="start" x="217.5" y="-82.3" font-family="Courier, monospace" font-size="14.00">1</text>
<polygon fill="none" stroke="black" points="157,-24.5 157,-75.5 287,-75.5 287,-24.5 157,-24.5"/>
<text text-anchor="start" x="160" y="-61.3" font-family="Courier, monospace" font-size="14.00">%n_5 = ψ(n)</text>
<text text-anchor="start" x="160" y="-46.3" font-family="Courier, monospace" font-size="14.00">%6 = 0</text>
<text text-anchor="start" x="160" y="-31.3" font-family="Courier, monospace" font-size="14.00">%4 = %n_5 NE %6</text>
<polygon fill="none" stroke="black" points="157,-3.5 157,-24.5 287,-24.5 287,-3.5 157,-3.5"/>
<text text-anchor="start" x="160" y="-10.3" font-family="Courier, monospace" font-size="14.00">???</text>
</g>
<!-- bb_0&#45;&gt;bb_1 -->
<g id="edge1" class="edge">
<title>bb_0&#45;&gt;bb_1</title>
<path fill="none" stroke="black" d="M113.31,-50.5C121.56,-50.5 130.19,-50.5 138.84,-50.5"/>
<polygon fill="black" stroke="black" points="138.96,-54 148.96,-50.5 138.96,-47 138.96,-54"/>
</g>
<!-- bb_2 -->
<g id="node3" class="node">
<title>bb_2</title>
<polygon fill="gray" stroke="transparent" points="41.5,-150.5 41.5,-171.5 72.5,-171.5 72.5,-150.5 41.5,-150.5"/>
<polygon fill="none" stroke="black" points="41.5,-150.5 41.5,-171.5 72.5,-171.5 72.5,-150.5 41.5,-150.5"/>
<text text-anchor="start" x="52.5" y="-157.3" font-family="Courier, monospace" font-size="14.00">2</text>
<polygon fill="none" stroke="black" points="41.5,-144.5 41.5,-150.5 72.5,-150.5 72.5,-144.5 41.5,-144.5"/>
<polygon fill="none" stroke="black" points="41.5,-123.5 41.5,-144.5 72.5,-144.5 72.5,-123.5 41.5,-123.5"/>
<text text-anchor="start" x="44.5" y="-130.3" font-family="Courier, monospace" font-size="14.00">???</text>
</g>
</g>
</svg>
