<?xml version="1.0" encoding="UTF-8" standalone="no"?>
<!DOCTYPE svg PUBLIC "-//W3C//DTD SVG 1.1//EN"
 "http://www.w3.org/Graphics/SVG/1.1/DTD/svg11.dtd">
<!-- Generated by graphviz version 2.43.0 (0)
 -->
<!-- Title: %3 Pages: 1 -->
<svg width="303pt" height="214pt"
 viewBox="0.00 0.00 303.00 214.00" xmlns="http://www.w3.org/2000/svg" xmlns:xlink="http://www.w3.org/1999/xlink">
<g id="graph0" class="graph" transform="scale(1 1) rotate(0) translate(4 210)">
<title>%3</title>
<polygon fill="white" stroke="transparent" points="-4,4 -4,-210 299,-210 299,4 -4,4"/>
<text text-anchor="middle" x="147.5" y="-190.8" font-family="Courier, monospace" font-size="14.00">Read Var cur</text>
<!-- bb_0 -->
<g id="node1" class="node">
<title>bb_0</title>
<polygon fill="green" stroke="transparent" points="8.5,-83 8.5,-104 105.5,-104 105.5,-83 8.5,-83"/>
<polygon fill="none" stroke="black" points="8.5,-83 8.5,-104 105.5,-104 105.5,-83 8.5,-83"/>
<text text-anchor="start" x="36" y="-89.8" font-family="Courier, monospace" font-size="14.00">0 ←[]</text>
<polygon fill="none" stroke="black" points="8.5,-32 8.5,-83 105.5,-83 105.5,-32 8.5,-32"/>
<text text-anchor="start" x="11.5" y="-68.8" font-family="Courier, monospace" font-size="14.00">%cur_1 = 1</text>
<text text-anchor="start" x="11.5" y="-53.8" font-family="Courier, monospace" font-size="14.00">%prev_2 = 0</text>
<text text-anchor="start" x="11.5" y="-38.8" font-family="Courier, monospace" font-size="14.00">%n_3 = 10</text>
<polygon fill="none" stroke="black" points="8.5,-11 8.5,-32 105.5,-32 105.5,-11 8.5,-11"/>
<text text-anchor="start" x="11.5" y="-17.8" font-family="Courier, monospace" font-size="14.00">GOTO 1</text>
</g>
<!-- bb_1 -->
<g id="node2" class="node">
<title>bb_1</title>
<polygon fill="gray" stroke="transparent" points="157,-91 157,-112 287,-112 287,-91 157,-91"/>
<polygon fill="none" stroke="black" points="157,-91 157,-112 287,-112 287,-91 157,-91"/>
<text text-anchor="start" x="217.5" y="-97.8" font-family="Courier, monospace" font-size="14.00">1</text>
<polygon fill="none" stroke="black" points="157,-25 157,-91 287,-91 287,-25 157,-25"/>
<text text-anchor="start" x="160" y="-76.8" font-family="Courier, monospace" font-size="14.00">%n_5 = ψ(n)</text>
<text text-anchor="start" x="160" y="-61.8" font-family="Courier, monospace" font-size="14.00">%6 = 0</text>
<text text-anchor="start" x="160" y="-46.8" font-family="Courier, monospace" font-size="14.00">%4 = %n_5 NE %6</text>
<text text-anchor="start" x="160" y="-31.8" font-family="Courier, monospace" font-size="14.00">%cur_8 = ψ(cur)</text>
<polygon fill="none" stroke="black" points="157,-4 157,-25 287,-25 287,-4 157,-4"/>
<text text-anchor="start" x="160" y="-10.8" font-family="Courier, monospace" font-size="14.00">???</text>
</g>
<!-- bb_0&#45;&gt;bb_1 -->
<g id="edge1" class="edge">
<title>bb_0&#45;&gt;bb_1</title>
<path fill="none" stroke="black" d="M113.31,-58C121.56,-58 130.19,-58 138.84,-58"/>
<polygon fill="black" stroke="black" points="138.96,-61.5 148.96,-58 138.96,-54.5 138.96,-61.5"/>
</g>
<!-- bb_2 -->
<g id="node3" class="node">
<title>bb_2</title>
<polygon fill="green" stroke="transparent" points="28.5,-158 28.5,-179 84.5,-179 84.5,-158 28.5,-158"/>
<polygon fill="none" stroke="black" points="28.5,-158 28.5,-179 84.5,-179 84.5,-158 28.5,-158"/>
<text text-anchor="start" x="31.5" y="-164.8" font-family="Courier, monospace" font-size="14.00">2 ←[1]</text>
<polygon fill="none" stroke="black" points="28.5,-152 28.5,-158 84.5,-158 84.5,-152 28.5,-152"/>
<polygon fill="none" stroke="black" points="28.5,-131 28.5,-152 84.5,-152 84.5,-131 28.5,-131"/>
<text text-anchor="start" x="31.5" y="-137.8" font-family="Courier, monospace" font-size="14.00">???</text>
</g>
</g>
</svg>
