<?xml version="1.0" encoding="UTF-8" standalone="no"?>
<!DOCTYPE svg PUBLIC "-//W3C//DTD SVG 1.1//EN"
 "http://www.w3.org/Graphics/SVG/1.1/DTD/svg11.dtd">
<!-- Generated by graphviz version 2.43.0 (0)
 -->
<!-- Title: %3 Pages: 1 -->
<svg width="320pt" height="222pt"
 viewBox="0.00 0.00 320.00 221.50" xmlns="http://www.w3.org/2000/svg" xmlns:xlink="http://www.w3.org/1999/xlink">
<g id="graph0" class="graph" transform="scale(1 1) rotate(0) translate(4 217.5)">
<title>%3</title>
<polygon fill="white" stroke="transparent" points="-4,4 -4,-217.5 316,-217.5 316,4 -4,4"/>
<text text-anchor="middle" x="156" y="-198.3" font-family="Courier, monospace" font-size="14.00">Read Var prev</text>
<!-- bb_0 -->
<g id="node1" class="node">
<title>bb_0</title>
<polygon fill="green" stroke="transparent" points="8.5,-90.5 8.5,-111.5 105.5,-111.5 105.5,-90.5 8.5,-90.5"/>
<polygon fill="none" stroke="black" points="8.5,-90.5 8.5,-111.5 105.5,-111.5 105.5,-90.5 8.5,-90.5"/>
<text text-anchor="start" x="36" y="-97.3" font-family="Courier, monospace" font-size="14.00">0 ←[]</text>
<polygon fill="none" stroke="black" points="8.5,-39.5 8.5,-90.5 105.5,-90.5 105.5,-39.5 8.5,-39.5"/>
<text text-anchor="start" x="11.5" y="-76.3" font-family="Courier, monospace" font-size="14.00">%cur_1 = 1</text>
<text text-anchor="start" x="11.5" y="-61.3" font-family="Courier, monospace" font-size="14.00">%prev_2 = 0</text>
<text text-anchor="start" x="11.5" y="-46.3" font-family="Courier, monospace" font-size="14.00">%n_3 = 10</text>
<polygon fill="none" stroke="black" points="8.5,-18.5 8.5,-39.5 105.5,-39.5 105.5,-18.5 8.5,-18.5"/>
<text text-anchor="start" x="11.5" y="-25.3" font-family="Courier, monospace" font-size="14.00">GOTO 1</text>
</g>
<!-- bb_1 -->
<g id="node2" class="node">
<title>bb_1</title>
<polygon fill="gray" stroke="transparent" points="157.5,-105.5 157.5,-126.5 304.5,-126.5 304.5,-105.5 157.5,-105.5"/>
<polygon fill="none" stroke="black" points="157.5,-105.5 157.5,-126.5 304.5,-126.5 304.5,-105.5 157.5,-105.5"/>
<text text-anchor="start" x="226.5" y="-112.3" font-family="Courier, monospace" font-size="14.00">1</text>
<polygon fill="none" stroke="black" points="157.5,-24.5 157.5,-105.5 304.5,-105.5 304.5,-24.5 157.5,-24.5"/>
<text text-anchor="start" x="160.5" y="-91.3" font-family="Courier, monospace" font-size="14.00">%n_5 = ψ(n)</text>
<text text-anchor="start" x="160.5" y="-76.3" font-family="Courier, monospace" font-size="14.00">%6 = 0</text>
<text text-anchor="start" x="160.5" y="-61.3" font-family="Courier, monospace" font-size="14.00">%4 = %n_5 NE %6</text>
<text text-anchor="start" x="160.5" y="-46.3" font-family="Courier, monospace" font-size="14.00">%cur_8 = ψ(cur)</text>
<text text-anchor="start" x="160.5" y="-31.3" font-family="Courier, monospace" font-size="14.00">%prev_9 = ψ(prev)</text>
<polygon fill="none" stroke="black" points="157.5,-3.5 157.5,-24.5 304.5,-24.5 304.5,-3.5 157.5,-3.5"/>
<text text-anchor="start" x="160.5" y="-10.3" font-family="Courier, monospace" font-size="14.00">???</text>
</g>
<!-- bb_0&#45;&gt;bb_1 -->
<g id="edge1" class="edge">
<title>bb_0&#45;&gt;bb_1</title>
<path fill="none" stroke="black" d="M113.34,-65.5C121.52,-65.5 130.12,-65.5 138.78,-65.5"/>
<polygon fill="black" stroke="black" points="138.95,-69 148.95,-65.5 138.95,-62 138.95,-69"/>
</g>
<!-- bb_2 -->
<g id="node3" class="node">
<title>bb_2</title>
<polygon fill="green" stroke="transparent" points="28.5,-165.5 28.5,-186.5 84.5,-186.5 84.5,-165.5 28.5,-165.5"/>
<polygon fill="none" stroke="black" points="28.5,-165.5 28.5,-186.5 84.5,-186.5 84.5,-165.5 28.5,-165.5"/>
<text text-anchor="start" x="31.5" y="-172.3" font-family="Courier, monospace" font-size="14.00">2 ←[1]</text>
<polygon fill="none" stroke="black" points="28.5,-159.5 28.5,-165.5 84.5,-165.5 84.5,-159.5 28.5,-159.5"/>
<polygon fill="none" stroke="black" points="28.5,-138.5 28.5,-159.5 84.5,-159.5 84.5,-138.5 28.5,-138.5"/>
<text text-anchor="start" x="31.5" y="-145.3" font-family="Courier, monospace" font-size="14.00">???</text>
</g>
</g>
</svg>
