<?xml version="1.0" encoding="UTF-8" standalone="no"?>
<!DOCTYPE svg PUBLIC "-//W3C//DTD SVG 1.1//EN"
 "http://www.w3.org/Graphics/SVG/1.1/DTD/svg11.dtd">
<!-- Generated by graphviz version 2.43.0 (0)
 -->
<!-- Title: %3 Pages: 1 -->
<svg width="419pt" height="236pt"
 viewBox="0.00 0.00 419.00 236.00" xmlns="http://www.w3.org/2000/svg" xmlns:xlink="http://www.w3.org/1999/xlink">
<g id="graph0" class="graph" transform="scale(1 1) rotate(0) translate(4 232)">
<title>%3</title>
<polygon fill="white" stroke="transparent" points="-4,4 -4,-232 415,-232 415,4 -4,4"/>
<text text-anchor="middle" x="205.5" y="-212.8" font-family="Courier, monospace" font-size="14.00">Created BinOp BinOpKind.ADD</text>
<!-- bb_0 -->
<g id="node1" class="node">
<title>bb_0</title>
<polygon fill="green" stroke="transparent" points="58,-90.5 58,-111.5 155,-111.5 155,-90.5 58,-90.5"/>
<polygon fill="none" stroke="black" points="58,-90.5 58,-111.5 155,-111.5 155,-90.5 58,-90.5"/>
<text text-anchor="start" x="85.5" y="-97.3" font-family="Courier, monospace" font-size="14.00">0 ←[]</text>
<polygon fill="none" stroke="black" points="58,-39.5 58,-90.5 155,-90.5 155,-39.5 58,-39.5"/>
<text text-anchor="start" x="61" y="-76.3" font-family="Courier, monospace" font-size="14.00">%cur_1 = 1</text>
<text text-anchor="start" x="61" y="-61.3" font-family="Courier, monospace" font-size="14.00">%prev_2 = 0</text>
<text text-anchor="start" x="61" y="-46.3" font-family="Courier, monospace" font-size="14.00">%n_3 = 10</text>
<polygon fill="none" stroke="black" points="58,-18.5 58,-39.5 155,-39.5 155,-18.5 58,-18.5"/>
<text text-anchor="start" x="61" y="-25.3" font-family="Courier, monospace" font-size="14.00">GOTO 1</text>
</g>
<!-- bb_1 -->
<g id="node2" class="node">
<title>bb_1</title>
<polygon fill="gray" stroke="transparent" points="256.5,-105.5 256.5,-126.5 403.5,-126.5 403.5,-105.5 256.5,-105.5"/>
<polygon fill="none" stroke="black" points="256.5,-105.5 256.5,-126.5 403.5,-126.5 403.5,-105.5 256.5,-105.5"/>
<text text-anchor="start" x="325.5" y="-112.3" font-family="Courier, monospace" font-size="14.00">1</text>
<polygon fill="none" stroke="black" points="256.5,-24.5 256.5,-105.5 403.5,-105.5 403.5,-24.5 256.5,-24.5"/>
<text text-anchor="start" x="259.5" y="-91.3" font-family="Courier, monospace" font-size="14.00">%n_5 = ψ(n)</text>
<text text-anchor="start" x="259.5" y="-76.3" font-family="Courier, monospace" font-size="14.00">%6 = 0</text>
<text text-anchor="start" x="259.5" y="-61.3" font-family="Courier, monospace" font-size="14.00">%4 = %n_5 NE %6</text>
<text text-anchor="start" x="259.5" y="-46.3" font-family="Courier, monospace" font-size="14.00">%cur_8 = ψ(cur)</text>
<text text-anchor="start" x="259.5" y="-31.3" font-family="Courier, monospace" font-size="14.00">%prev_9 = ψ(prev)</text>
<polygon fill="none" stroke="black" points="256.5,-3.5 256.5,-24.5 403.5,-24.5 403.5,-3.5 256.5,-3.5"/>
<text text-anchor="start" x="259.5" y="-10.3" font-family="Courier, monospace" font-size="14.00">???</text>
</g>
<!-- bb_0&#45;&gt;bb_1 -->
<g id="edge1" class="edge">
<title>bb_0&#45;&gt;bb_1</title>
<path fill="none" stroke="black" d="M162.61,-65.5C185.35,-65.5 212.25,-65.5 237.7,-65.5"/>
<polygon fill="black" stroke="black" points="237.75,-69 247.75,-65.5 237.75,-62 237.75,-69"/>
</g>
<!-- bb_2 -->
<g id="node3" class="node">
<title>bb_2</title>
<polygon fill="green" stroke="transparent" points="8,-179.5 8,-200.5 204,-200.5 204,-179.5 8,-179.5"/>
<polygon fill="none" stroke="black" points="8,-179.5 8,-200.5 204,-200.5 204,-179.5 8,-179.5"/>
<text text-anchor="start" x="81" y="-186.3" font-family="Courier, monospace" font-size="14.00">2 ←[1]</text>
<polygon fill="none" stroke="black" points="8,-158.5 8,-179.5 204,-179.5 204,-158.5 8,-158.5"/>
<text text-anchor="start" x="11" y="-165.3" font-family="Courier, monospace" font-size="14.00">%7 = %cur_8 ADD %prev_9</text>
<polygon fill="none" stroke="black" points="8,-137.5 8,-158.5 204,-158.5 204,-137.5 8,-137.5"/>
<text text-anchor="start" x="11" y="-144.3" font-family="Courier, monospace" font-size="14.00">???</text>
</g>
</g>
</svg>
