<?xml version="1.0" encoding="UTF-8" standalone="no"?>
<!DOCTYPE svg PUBLIC "-//W3C//DTD SVG 1.1//EN"
 "http://www.w3.org/Graphics/SVG/1.1/DTD/svg11.dtd">
<!-- Generated by graphviz version 2.43.0 (0)
 -->
<!-- Title: %3 Pages: 1 -->
<svg width="469pt" height="236pt"
 viewBox="0.00 0.00 469.00 236.00" xmlns="http://www.w3.org/2000/svg" xmlns:xlink="http://www.w3.org/1999/xlink">
<g id="graph0" class="graph" transform="scale(1 1) rotate(0) translate(4 232)">
<title>%3</title>
<polygon fill="white" stroke="transparent" points="-4,4 -4,-232 465,-232 465,4 -4,4"/>
<text text-anchor="middle" x="230.5" y="-212.8" font-family="Courier, monospace" font-size="14.00">Done assign prev</text>
<!-- bb_0 -->
<g id="node1" class="node">
<title>bb_0</title>
<polygon fill="green" stroke="transparent" points="83,-90.5 83,-111.5 180,-111.5 180,-90.5 83,-90.5"/>
<polygon fill="none" stroke="black" points="83,-90.5 83,-111.5 180,-111.5 180,-90.5 83,-90.5"/>
<text text-anchor="start" x="110.5" y="-97.3" font-family="Courier, monospace" font-size="14.00">0 ←[]</text>
<polygon fill="none" stroke="black" points="83,-39.5 83,-90.5 180,-90.5 180,-39.5 83,-39.5"/>
<text text-anchor="start" x="86" y="-76.3" font-family="Courier, monospace" font-size="14.00">%cur_1 = 1</text>
<text text-anchor="start" x="86" y="-61.3" font-family="Courier, monospace" font-size="14.00">%prev_2 = 0</text>
<text text-anchor="start" x="86" y="-46.3" font-family="Courier, monospace" font-size="14.00">%n_3 = 10</text>
<polygon fill="none" stroke="black" points="83,-18.5 83,-39.5 180,-39.5 180,-18.5 83,-18.5"/>
<text text-anchor="start" x="86" y="-25.3" font-family="Courier, monospace" font-size="14.00">GOTO 1</text>
</g>
<!-- bb_1 -->
<g id="node2" class="node">
<title>bb_1</title>
<polygon fill="gray" stroke="transparent" points="306.5,-105.5 306.5,-126.5 453.5,-126.5 453.5,-105.5 306.5,-105.5"/>
<polygon fill="none" stroke="black" points="306.5,-105.5 306.5,-126.5 453.5,-126.5 453.5,-105.5 306.5,-105.5"/>
<text text-anchor="start" x="375.5" y="-112.3" font-family="Courier, monospace" font-size="14.00">1</text>
<polygon fill="none" stroke="black" points="306.5,-24.5 306.5,-105.5 453.5,-105.5 453.5,-24.5 306.5,-24.5"/>
<text text-anchor="start" x="309.5" y="-91.3" font-family="Courier, monospace" font-size="14.00">%n_5 = ψ(n)</text>
<text text-anchor="start" x="309.5" y="-76.3" font-family="Courier, monospace" font-size="14.00">%6 = 0</text>
<text text-anchor="start" x="309.5" y="-61.3" font-family="Courier, monospace" font-size="14.00">%4 = %n_5 NE %6</text>
<text text-anchor="start" x="309.5" y="-46.3" font-family="Courier, monospace" font-size="14.00">%prev_8 = ψ(cur)</text>
<text text-anchor="start" x="309.5" y="-31.3" font-family="Courier, monospace" font-size="14.00">%prev_9 = ψ(prev)</text>
<polygon fill="none" stroke="black" points="306.5,-3.5 306.5,-24.5 453.5,-24.5 453.5,-3.5 306.5,-3.5"/>
<text text-anchor="start" x="309.5" y="-10.3" font-family="Courier, monospace" font-size="14.00">???</text>
</g>
<!-- bb_0&#45;&gt;bb_1 -->
<g id="edge1" class="edge">
<title>bb_0&#45;&gt;bb_1</title>
<path fill="none" stroke="black" d="M187.63,-65.5C217.1,-65.5 254.03,-65.5 287.55,-65.5"/>
<polygon fill="black" stroke="black" points="287.82,-69 297.82,-65.5 287.82,-62 287.82,-69"/>
</g>
<!-- bb_2 -->
<g id="node3" class="node">
<title>bb_2</title>
<polygon fill="green" stroke="transparent" points="8,-179.5 8,-200.5 254,-200.5 254,-179.5 8,-179.5"/>
<polygon fill="none" stroke="black" points="8,-179.5 8,-200.5 254,-200.5 254,-179.5 8,-179.5"/>
<text text-anchor="start" x="106" y="-186.3" font-family="Courier, monospace" font-size="14.00">2 ←[1]</text>
<polygon fill="none" stroke="black" points="8,-158.5 8,-179.5 254,-179.5 254,-158.5 8,-158.5"/>
<text text-anchor="start" x="11" y="-165.3" font-family="Courier, monospace" font-size="14.00">%next_7 = %prev_8 ADD %prev_9</text>
<polygon fill="none" stroke="black" points="8,-137.5 8,-158.5 254,-158.5 254,-137.5 8,-137.5"/>
<text text-anchor="start" x="11" y="-144.3" font-family="Courier, monospace" font-size="14.00">???</text>
</g>
</g>
</svg>
