<?xml version="1.0" encoding="UTF-8" standalone="no"?>
<!DOCTYPE svg PUBLIC "-//W3C//DTD SVG 1.1//EN"
 "http://www.w3.org/Graphics/SVG/1.1/DTD/svg11.dtd">
<!-- Generated by graphviz version 2.43.0 (0)
 -->
<!-- Title: %3 Pages: 1 -->
<svg width="461pt" height="266pt"
 viewBox="0.00 0.00 461.00 266.00" xmlns="http://www.w3.org/2000/svg" xmlns:xlink="http://www.w3.org/1999/xlink">
<g id="graph0" class="graph" transform="scale(1 1) rotate(0) translate(4 262)">
<title>%3</title>
<polygon fill="white" stroke="transparent" points="-4,4 -4,-262 457,-262 457,4 -4,4"/>
<text text-anchor="middle" x="226.5" y="-242.8" font-family="Courier, monospace" font-size="14.00">While: Finished Loop Body</text>
<!-- bb_0 -->
<g id="node1" class="node">
<title>bb_0</title>
<polygon fill="green" stroke="transparent" points="79,-90.5 79,-111.5 176,-111.5 176,-90.5 79,-90.5"/>
<polygon fill="none" stroke="black" points="79,-90.5 79,-111.5 176,-111.5 176,-90.5 79,-90.5"/>
<text text-anchor="start" x="106.5" y="-97.3" font-family="Courier, monospace" font-size="14.00">0 ←[]</text>
<polygon fill="none" stroke="black" points="79,-39.5 79,-90.5 176,-90.5 176,-39.5 79,-39.5"/>
<text text-anchor="start" x="82" y="-76.3" font-family="Courier, monospace" font-size="14.00">%cur_1 = 1</text>
<text text-anchor="start" x="82" y="-61.3" font-family="Courier, monospace" font-size="14.00">%prev_2 = 0</text>
<text text-anchor="start" x="82" y="-46.3" font-family="Courier, monospace" font-size="14.00">%n_3 = 10</text>
<polygon fill="none" stroke="black" points="79,-18.5 79,-39.5 176,-39.5 176,-18.5 79,-18.5"/>
<text text-anchor="start" x="82" y="-25.3" font-family="Courier, monospace" font-size="14.00">GOTO 1</text>
</g>
<!-- bb_1 -->
<g id="node2" class="node">
<title>bb_1</title>
<polygon fill="gray" stroke="transparent" points="298.5,-105.5 298.5,-126.5 445.5,-126.5 445.5,-105.5 298.5,-105.5"/>
<polygon fill="none" stroke="black" points="298.5,-105.5 298.5,-126.5 445.5,-126.5 445.5,-105.5 298.5,-105.5"/>
<text text-anchor="start" x="367.5" y="-112.3" font-family="Courier, monospace" font-size="14.00">1</text>
<polygon fill="none" stroke="black" points="298.5,-24.5 298.5,-105.5 445.5,-105.5 445.5,-24.5 298.5,-24.5"/>
<text text-anchor="start" x="301.5" y="-91.3" font-family="Courier, monospace" font-size="14.00">%n_5 = ψ(n)</text>
<text text-anchor="start" x="301.5" y="-76.3" font-family="Courier, monospace" font-size="14.00">%6 = 0</text>
<text text-anchor="start" x="301.5" y="-61.3" font-family="Courier, monospace" font-size="14.00">%4 = %n_5 NE %6</text>
<text text-anchor="start" x="301.5" y="-46.3" font-family="Courier, monospace" font-size="14.00">%prev_8 = ψ(cur)</text>
<text text-anchor="start" x="301.5" y="-31.3" font-family="Courier, monospace" font-size="14.00">%prev_9 = ψ(prev)</text>
<polygon fill="none" stroke="black" points="298.5,-3.5 298.5,-24.5 445.5,-24.5 445.5,-3.5 298.5,-3.5"/>
<text text-anchor="start" x="301.5" y="-10.3" font-family="Courier, monospace" font-size="14.00">???</text>
</g>
<!-- bb_0&#45;&gt;bb_1 -->
<g id="edge1" class="edge">
<title>bb_0&#45;&gt;bb_1</title>
<path fill="none" stroke="black" d="M183.63,-65.5C212.02,-65.5 247.28,-65.5 279.5,-65.5"/>
<polygon fill="black" stroke="black" points="279.84,-69 289.84,-65.5 279.84,-62 279.84,-69"/>
</g>
<!-- bb_2 -->
<g id="node3" class="node">
<title>bb_2</title>
<polygon fill="green" stroke="transparent" points="8,-209.5 8,-230.5 246,-230.5 246,-209.5 8,-209.5"/>
<polygon fill="none" stroke="black" points="8,-209.5 8,-230.5 246,-230.5 246,-209.5 8,-209.5"/>
<text text-anchor="start" x="102" y="-216.3" font-family="Courier, monospace" font-size="14.00">2 ←[1]</text>
<polygon fill="none" stroke="black" points="8,-158.5 8,-209.5 246,-209.5 246,-158.5 8,-158.5"/>
<text text-anchor="start" x="11" y="-195.3" font-family="Courier, monospace" font-size="14.00">%cur_7 = %prev_8 ADD %prev_9</text>
<text text-anchor="start" x="11" y="-180.3" font-family="Courier, monospace" font-size="14.00">%11 = 1</text>
<text text-anchor="start" x="11" y="-165.3" font-family="Courier, monospace" font-size="14.00">%n_10 = %n_5 SUB %11</text>
<polygon fill="none" stroke="black" points="8,-137.5 8,-158.5 246,-158.5 246,-137.5 8,-137.5"/>
<text text-anchor="start" x="11" y="-144.3" font-family="Courier, monospace" font-size="14.00">???</text>
</g>
</g>
</svg>
