<?xml version="1.0" encoding="UTF-8" standalone="no"?>
<!DOCTYPE svg PUBLIC "-//W3C//DTD SVG 1.1//EN"
 "http://www.w3.org/Graphics/SVG/1.1/DTD/svg11.dtd">
<!-- Generated by graphviz version 2.43.0 (0)
 -->
<!-- Title: %3 Pages: 1 -->
<svg width="148pt" height="102pt"
 viewBox="0.00 0.00 148.00 102.00" xmlns="http://www.w3.org/2000/svg" xmlns:xlink="http://www.w3.org/1999/xlink">
<g id="graph0" class="graph" transform="scale(1 1) rotate(0) translate(4 98)">
<title>%3</title>
<polygon fill="white" stroke="transparent" points="-4,4 -4,-98 144,-98 144,4 -4,4"/>
<text text-anchor="middle" x="70" y="-78.8" font-family="Courier, monospace" font-size="14.00">Done assign cur</text>
<!-- bb_0 -->
<g id="node1" class="node">
<title>bb_0</title>
<polygon fill="gray" stroke="transparent" points="26,-45.5 26,-66.5 115,-66.5 115,-45.5 26,-45.5"/>
<polygon fill="none" stroke="black" points="26,-45.5 26,-66.5 115,-66.5 115,-45.5 26,-45.5"/>
<text text-anchor="start" x="66" y="-52.3" font-family="Courier, monospace" font-size="14.00">0</text>
<polygon fill="none" stroke="black" points="26,-24.5 26,-45.5 115,-45.5 115,-24.5 26,-24.5"/>
<text text-anchor="start" x="29" y="-31.3" font-family="Courier, monospace" font-size="14.00">%cur_1 = 1</text>
<polygon fill="none" stroke="black" points="26,-3.5 26,-24.5 115,-24.5 115,-3.5 26,-3.5"/>
<text text-anchor="start" x="29" y="-10.3" font-family="Courier, monospace" font-size="14.00">???</text>
</g>
</g>
</svg>
