<?xml version="1.0" encoding="UTF-8" standalone="no"?>
<!DOCTYPE svg PUBLIC "-//W3C//DTD SVG 1.1//EN"
 "http://www.w3.org/Graphics/SVG/1.1/DTD/svg11.dtd">
<!-- Generated by graphviz version 2.43.0 (0)
 -->
<!-- Title: %3 Pages: 1 -->
<svg width="560pt" height="326pt"
 viewBox="0.00 0.00 560.00 325.50" xmlns="http://www.w3.org/2000/svg" xmlns:xlink="http://www.w3.org/1999/xlink">
<g id="graph0" class="graph" transform="scale(1 1) rotate(0) translate(4 321.5)">
<title>%3</title>
<polygon fill="white" stroke="transparent" points="-4,4 -4,-321.5 556,-321.5 556,4 -4,4"/>
<text text-anchor="middle" x="276" y="-302.3" font-family="Courier, monospace" font-size="14.00">New Block: 3</text>
<!-- bb_0 -->
<g id="node1" class="node">
<title>bb_0</title>
<polygon fill="green" stroke="transparent" points="79,-194.5 79,-215.5 176,-215.5 176,-194.5 79,-194.5"/>
<polygon fill="none" stroke="black" points="79,-194.5 79,-215.5 176,-215.5 176,-194.5 79,-194.5"/>
<text text-anchor="start" x="106.5" y="-201.3" font-family="Courier, monospace" font-size="14.00">0 ←[]</text>
<polygon fill="none" stroke="black" points="79,-143.5 79,-194.5 176,-194.5 176,-143.5 79,-143.5"/>
<text text-anchor="start" x="82" y="-180.3" font-family="Courier, monospace" font-size="14.00">%cur_1 = 1</text>
<text text-anchor="start" x="82" y="-165.3" font-family="Courier, monospace" font-size="14.00">%prev_2 = 0</text>
<text text-anchor="start" x="82" y="-150.3" font-family="Courier, monospace" font-size="14.00">%n_3 = 10</text>
<polygon fill="none" stroke="black" points="79,-122.5 79,-143.5 176,-143.5 176,-122.5 79,-122.5"/>
<text text-anchor="start" x="82" y="-129.3" font-family="Courier, monospace" font-size="14.00">GOTO 1</text>
</g>
<!-- bb_1 -->
<g id="node2" class="node">
<title>bb_1</title>
<polygon fill="green" stroke="transparent" points="298,-149.5 298,-170.5 544,-170.5 544,-149.5 298,-149.5"/>
<polygon fill="none" stroke="black" points="298,-149.5 298,-170.5 544,-170.5 544,-149.5 298,-149.5"/>
<text text-anchor="start" x="383.5" y="-156.3" font-family="Courier, monospace" font-size="14.00">1 ←[0, 2]</text>
<polygon fill="none" stroke="black" points="298,-68.5 298,-149.5 544,-149.5 544,-68.5 298,-68.5"/>
<text text-anchor="start" x="301" y="-135.3" font-family="Courier, monospace" font-size="14.00">%n_5 = Φ(%n_3, %n_10)</text>
<text text-anchor="start" x="301" y="-120.3" font-family="Courier, monospace" font-size="14.00">%6 = 0</text>
<text text-anchor="start" x="301" y="-105.3" font-family="Courier, monospace" font-size="14.00">%4 = %n_5 NE %6</text>
<text text-anchor="start" x="301" y="-90.3" font-family="Courier, monospace" font-size="14.00">%prev_8 = Φ(%cur_1, %cur_7)</text>
<text text-anchor="start" x="301" y="-75.3" font-family="Courier, monospace" font-size="14.00">%prev_9 = Φ(%prev_2, %prev_8)</text>
<polygon fill="none" stroke="black" points="298,-47.5 298,-68.5 544,-68.5 544,-47.5 298,-47.5"/>
<text text-anchor="start" x="301" y="-54.3" font-family="Courier, monospace" font-size="14.00">???</text>
</g>
<!-- bb_0&#45;&gt;bb_1 -->
<g id="edge1" class="edge">
<title>bb_0&#45;&gt;bb_1</title>
<path fill="none" stroke="black" d="M183.61,-158.07C211.1,-152.43 245.63,-145.33 279.74,-138.32"/>
<polygon fill="black" stroke="black" points="280.73,-141.69 289.82,-136.25 279.32,-134.83 280.73,-141.69"/>
</g>
<!-- bb_2 -->
<g id="node3" class="node">
<title>bb_2</title>
<polygon fill="green" stroke="transparent" points="8,-75.5 8,-96.5 246,-96.5 246,-75.5 8,-75.5"/>
<polygon fill="none" stroke="black" points="8,-75.5 8,-96.5 246,-96.5 246,-75.5 8,-75.5"/>
<text text-anchor="start" x="102" y="-82.3" font-family="Courier, monospace" font-size="14.00">2 ←[1]</text>
<polygon fill="none" stroke="black" points="8,-24.5 8,-75.5 246,-75.5 246,-24.5 8,-24.5"/>
<text text-anchor="start" x="11" y="-61.3" font-family="Courier, monospace" font-size="14.00">%cur_7 = %prev_8 ADD %prev_9</text>
<text text-anchor="start" x="11" y="-46.3" font-family="Courier, monospace" font-size="14.00">%11 = 1</text>
<text text-anchor="start" x="11" y="-31.3" font-family="Courier, monospace" font-size="14.00">%n_10 = %n_5 SUB %11</text>
<polygon fill="none" stroke="black" points="8,-3.5 8,-24.5 246,-24.5 246,-3.5 8,-3.5"/>
<text text-anchor="start" x="11" y="-10.3" font-family="Courier, monospace" font-size="14.00">GOTO 1</text>
</g>
<!-- bb_2&#45;&gt;bb_1 -->
<g id="edge2" class="edge">
<title>bb_2&#45;&gt;bb_1</title>
<path fill="none" stroke="black" d="M254.38,-76.04C262.8,-77.74 271.3,-79.46 279.79,-81.17"/>
<polygon fill="black" stroke="black" points="279.23,-84.63 289.73,-83.18 280.62,-77.77 279.23,-84.63"/>
</g>
<!-- bb_3 -->
<g id="node4" class="node">
<title>bb_3</title>
<polygon fill="gray" stroke="transparent" points="112,-269.5 112,-290.5 143,-290.5 143,-269.5 112,-269.5"/>
<polygon fill="none" stroke="black" points="112,-269.5 112,-290.5 143,-290.5 143,-269.5 112,-269.5"/>
<text text-anchor="start" x="123" y="-276.3" font-family="Courier, monospace" font-size="14.00">3</text>
<polygon fill="none" stroke="black" points="112,-263.5 112,-269.5 143,-269.5 143,-263.5 112,-263.5"/>
<polygon fill="none" stroke="black" points="112,-242.5 112,-263.5 143,-263.5 143,-242.5 112,-242.5"/>
<text text-anchor="start" x="115" y="-249.3" font-family="Courier, monospace" font-size="14.00">???</text>
</g>
</g>
</svg>
