<?xml version="1.0" encoding="UTF-8" standalone="no"?>
<!DOCTYPE svg PUBLIC "-//W3C//DTD SVG 1.1//EN"
 "http://www.w3.org/Graphics/SVG/1.1/DTD/svg11.dtd">
<!-- Generated by graphviz version 2.43.0 (0)
 -->
<!-- Title: %3 Pages: 1 -->
<svg width="760pt" height="207pt"
 viewBox="0.00 0.00 760.00 206.50" xmlns="http://www.w3.org/2000/svg" xmlns:xlink="http://www.w3.org/1999/xlink">
<g id="graph0" class="graph" transform="scale(1 1) rotate(0) translate(4 202.5)">
<title>%3</title>
<polygon fill="white" stroke="transparent" points="-4,4 -4,-202.5 756,-202.5 756,4 -4,4"/>
<text text-anchor="middle" x="376" y="-183.3" font-family="Courier, monospace" font-size="14.00">While: Added exit node</text>
<!-- bb_0 -->
<g id="node1" class="node">
<title>bb_0</title>
<polygon fill="green" stroke="transparent" points="8.5,-117 8.5,-138 105.5,-138 105.5,-117 8.5,-117"/>
<polygon fill="none" stroke="black" points="8.5,-117 8.5,-138 105.5,-138 105.5,-117 8.5,-117"/>
<text text-anchor="start" x="36" y="-123.8" font-family="Courier, monospace" font-size="14.00">0 ←[]</text>
<polygon fill="none" stroke="black" points="8.5,-66 8.5,-117 105.5,-117 105.5,-66 8.5,-66"/>
<text text-anchor="start" x="11.5" y="-102.8" font-family="Courier, monospace" font-size="14.00">%cur_1 = 1</text>
<text text-anchor="start" x="11.5" y="-87.8" font-family="Courier, monospace" font-size="14.00">%prev_2 = 0</text>
<text text-anchor="start" x="11.5" y="-72.8" font-family="Courier, monospace" font-size="14.00">%n_3 = 10</text>
<polygon fill="none" stroke="black" points="8.5,-45 8.5,-66 105.5,-66 105.5,-45 8.5,-45"/>
<text text-anchor="start" x="11.5" y="-51.8" font-family="Courier, monospace" font-size="14.00">GOTO 1</text>
</g>
<!-- bb_1 -->
<g id="node2" class="node">
<title>bb_1</title>
<polygon fill="green" stroke="transparent" points="158,-132 158,-153 404,-153 404,-132 158,-132"/>
<polygon fill="none" stroke="black" points="158,-132 158,-153 404,-153 404,-132 158,-132"/>
<text text-anchor="start" x="243.5" y="-138.8" font-family="Courier, monospace" font-size="14.00">1 ←[0, 2]</text>
<polygon fill="none" stroke="black" points="158,-51 158,-132 404,-132 404,-51 158,-51"/>
<text text-anchor="start" x="161" y="-117.8" font-family="Courier, monospace" font-size="14.00">%n_5 = Φ(%n_3, %n_10)</text>
<text text-anchor="start" x="161" y="-102.8" font-family="Courier, monospace" font-size="14.00">%6 = 0</text>
<text text-anchor="start" x="161" y="-87.8" font-family="Courier, monospace" font-size="14.00">%4 = %n_5 NE %6</text>
<text text-anchor="start" x="161" y="-72.8" font-family="Courier, monospace" font-size="14.00">%prev_8 = Φ(%cur_1, %cur_7)</text>
<text text-anchor="start" x="161" y="-57.8" font-family="Courier, monospace" font-size="14.00">%prev_9 = Φ(%prev_2, %prev_8)</text>
<polygon fill="none" stroke="black" points="158,-30 158,-51 404,-51 404,-30 158,-30"/>
<text text-anchor="start" x="161" y="-36.8" font-family="Courier, monospace" font-size="14.00">GOTO %4 ? 2 : 3</text>
</g>
<!-- bb_0&#45;&gt;bb_1 -->
<g id="edge1" class="edge">
<title>bb_0&#45;&gt;bb_1</title>
<path fill="none" stroke="black" d="M113.07,-92C121.49,-92 130.47,-92 139.74,-92"/>
<polygon fill="black" stroke="black" points="139.91,-95.5 149.91,-92 139.91,-88.5 139.91,-95.5"/>
</g>
<!-- bb_2 -->
<g id="node3" class="node">
<title>bb_2</title>
<polygon fill="green" stroke="transparent" points="506,-150 506,-171 744,-171 744,-150 506,-150"/>
<polygon fill="none" stroke="black" points="506,-150 506,-171 744,-171 744,-150 506,-150"/>
<text text-anchor="start" x="600" y="-156.8" font-family="Courier, monospace" font-size="14.00">2 ←[1]</text>
<polygon fill="none" stroke="black" points="506,-99 506,-150 744,-150 744,-99 506,-99"/>
<text text-anchor="start" x="509" y="-135.8" font-family="Courier, monospace" font-size="14.00">%cur_7 = %prev_8 ADD %prev_9</text>
<text text-anchor="start" x="509" y="-120.8" font-family="Courier, monospace" font-size="14.00">%11 = 1</text>
<text text-anchor="start" x="509" y="-105.8" font-family="Courier, monospace" font-size="14.00">%n_10 = %n_5 SUB %11</text>
<polygon fill="none" stroke="black" points="506,-78 506,-99 744,-99 744,-78 506,-78"/>
<text text-anchor="start" x="509" y="-84.8" font-family="Courier, monospace" font-size="14.00">GOTO 1</text>
</g>
<!-- bb_1&#45;&gt;bb_2 -->
<g id="edge2" class="edge">
<title>bb_1&#45;&gt;bb_2</title>
<path fill="none" stroke="black" d="M412.27,-104.57C436.91,-106.95 462.74,-109.44 487.57,-111.84"/>
<polygon fill="black" stroke="black" points="487.47,-115.34 497.76,-112.82 488.14,-108.37 487.47,-115.34"/>
<text text-anchor="middle" x="455" y="-113.8" font-family="Courier, monospace" font-size="14.00">when</text>
</g>
<!-- bb_3 -->
<g id="node4" class="node">
<title>bb_3</title>
<polygon fill="green" stroke="transparent" points="597,-31 597,-52 653,-52 653,-31 597,-31"/>
<polygon fill="none" stroke="black" points="597,-31 597,-52 653,-52 653,-31 597,-31"/>
<text text-anchor="start" x="600" y="-37.8" font-family="Courier, monospace" font-size="14.00">3 ←[1]</text>
<polygon fill="none" stroke="black" points="597,-25 597,-31 653,-31 653,-25 597,-25"/>
<polygon fill="none" stroke="black" points="597,-4 597,-25 653,-25 653,-4 597,-4"/>
<text text-anchor="start" x="600" y="-10.8" font-family="Courier, monospace" font-size="14.00">???</text>
</g>
<!-- bb_1&#45;&gt;bb_3 -->
<g id="edge3" class="edge">
<title>bb_1&#45;&gt;bb_3</title>
<path fill="none" stroke="black" d="M412.27,-67.62C471.04,-56.62 536.62,-44.35 579.01,-36.42"/>
<polygon fill="black" stroke="black" points="579.81,-39.83 589,-34.55 578.53,-32.95 579.81,-39.83"/>
<text text-anchor="middle" x="455" y="-66.8" font-family="Courier, monospace" font-size="14.00">unless</text>
</g>
<!-- bb_2&#45;&gt;bb_1 -->
<g id="edge4" class="edge">
<title>bb_2&#45;&gt;bb_1</title>
<path fill="none" stroke="black" d="M497.62,-107.88C491.67,-107.22 485.77,-106.58 480,-106 461.31,-104.11 441.61,-102.39 422.17,-100.85"/>
<polygon fill="black" stroke="black" points="422.27,-97.35 412.03,-100.06 421.73,-104.33 422.27,-97.35"/>
</g>
</g>
</svg>
