<?xml version="1.0" encoding="UTF-8" standalone="no"?>
<!DOCTYPE svg PUBLIC "-//W3C//DTD SVG 1.1//EN"
 "http://www.w3.org/Graphics/SVG/1.1/DTD/svg11.dtd">
<!-- Generated by graphviz version 2.43.0 (0)
 -->
<!-- Title: %3 Pages: 1 -->
<svg width="132pt" height="117pt"
 viewBox="0.00 0.00 132.00 117.00" xmlns="http://www.w3.org/2000/svg" xmlns:xlink="http://www.w3.org/1999/xlink">
<g id="graph0" class="graph" transform="scale(1 1) rotate(0) translate(4 113)">
<title>%3</title>
<polygon fill="white" stroke="transparent" points="-4,4 -4,-113 128,-113 128,4 -4,4"/>
<text text-anchor="middle" x="62" y="-93.8" font-family="Courier, monospace" font-size="14.00">Created Int 0</text>
<!-- bb_0 -->
<g id="node1" class="node">
<title>bb_0</title>
<polygon fill="gray" stroke="transparent" points="18,-61 18,-82 107,-82 107,-61 18,-61"/>
<polygon fill="none" stroke="black" points="18,-61 18,-82 107,-82 107,-61 18,-61"/>
<text text-anchor="start" x="58" y="-67.8" font-family="Courier, monospace" font-size="14.00">0</text>
<polygon fill="none" stroke="black" points="18,-25 18,-61 107,-61 107,-25 18,-25"/>
<text text-anchor="start" x="21" y="-46.8" font-family="Courier, monospace" font-size="14.00">%cur_1 = 1</text>
<text text-anchor="start" x="21" y="-31.8" font-family="Courier, monospace" font-size="14.00">%2 = 0</text>
<polygon fill="none" stroke="black" points="18,-4 18,-25 107,-25 107,-4 18,-4"/>
<text text-anchor="start" x="21" y="-10.8" font-family="Courier, monospace" font-size="14.00">???</text>
</g>
</g>
</svg>
