<?xml version="1.0" encoding="UTF-8" standalone="no"?>
<!DOCTYPE svg PUBLIC "-//W3C//DTD SVG 1.1//EN"
 "http://www.w3.org/Graphics/SVG/1.1/DTD/svg11.dtd">
<!-- Generated by graphviz version 2.43.0 (0)
 -->
<!-- Title: %3 Pages: 1 -->
<svg width="157pt" height="117pt"
 viewBox="0.00 0.00 157.00 117.00" xmlns="http://www.w3.org/2000/svg" xmlns:xlink="http://www.w3.org/1999/xlink">
<g id="graph0" class="graph" transform="scale(1 1) rotate(0) translate(4 113)">
<title>%3</title>
<polygon fill="white" stroke="transparent" points="-4,4 -4,-113 153,-113 153,4 -4,4"/>
<text text-anchor="middle" x="74.5" y="-93.8" font-family="Courier, monospace" font-size="14.00">Done assign prev</text>
<!-- bb_0 -->
<g id="node1" class="node">
<title>bb_0</title>
<polygon fill="gray" stroke="transparent" points="26.5,-61 26.5,-82 123.5,-82 123.5,-61 26.5,-61"/>
<polygon fill="none" stroke="black" points="26.5,-61 26.5,-82 123.5,-82 123.5,-61 26.5,-61"/>
<text text-anchor="start" x="70.5" y="-67.8" font-family="Courier, monospace" font-size="14.00">0</text>
<polygon fill="none" stroke="black" points="26.5,-25 26.5,-61 123.5,-61 123.5,-25 26.5,-25"/>
<text text-anchor="start" x="29.5" y="-46.8" font-family="Courier, monospace" font-size="14.00">%cur_1 = 1</text>
<text text-anchor="start" x="29.5" y="-31.8" font-family="Courier, monospace" font-size="14.00">%prev_2 = 0</text>
<polygon fill="none" stroke="black" points="26.5,-4 26.5,-25 123.5,-25 123.5,-4 26.5,-4"/>
<text text-anchor="start" x="29.5" y="-10.8" font-family="Courier, monospace" font-size="14.00">???</text>
</g>
</g>
</svg>
