<?xml version="1.0" encoding="UTF-8" standalone="no"?>
<!DOCTYPE svg PUBLIC "-//W3C//DTD SVG 1.1//EN"
 "http://www.w3.org/Graphics/SVG/1.1/DTD/svg11.dtd">
<!-- Generated by graphviz version 2.43.0 (0)
 -->
<!-- Title: %3 Pages: 1 -->
<svg width="140pt" height="132pt"
 viewBox="0.00 0.00 140.00 132.00" xmlns="http://www.w3.org/2000/svg" xmlns:xlink="http://www.w3.org/1999/xlink">
<g id="graph0" class="graph" transform="scale(1 1) rotate(0) translate(4 128)">
<title>%3</title>
<polygon fill="white" stroke="transparent" points="-4,4 -4,-128 136,-128 136,4 -4,4"/>
<text text-anchor="middle" x="66" y="-108.8" font-family="Courier, monospace" font-size="14.00">Created Int 10</text>
<!-- bb_0 -->
<g id="node1" class="node">
<title>bb_0</title>
<polygon fill="gray" stroke="transparent" points="18,-75.5 18,-96.5 115,-96.5 115,-75.5 18,-75.5"/>
<polygon fill="none" stroke="black" points="18,-75.5 18,-96.5 115,-96.5 115,-75.5 18,-75.5"/>
<text text-anchor="start" x="62" y="-82.3" font-family="Courier, monospace" font-size="14.00">0</text>
<polygon fill="none" stroke="black" points="18,-24.5 18,-75.5 115,-75.5 115,-24.5 18,-24.5"/>
<text text-anchor="start" x="21" y="-61.3" font-family="Courier, monospace" font-size="14.00">%cur_1 = 1</text>
<text text-anchor="start" x="21" y="-46.3" font-family="Courier, monospace" font-size="14.00">%prev_2 = 0</text>
<text text-anchor="start" x="21" y="-31.3" font-family="Courier, monospace" font-size="14.00">%3 = 10</text>
<polygon fill="none" stroke="black" points="18,-3.5 18,-24.5 115,-24.5 115,-3.5 18,-3.5"/>
<text text-anchor="start" x="21" y="-10.3" font-family="Courier, monospace" font-size="14.00">???</text>
</g>
</g>
</svg>
