<?xml version="1.0" encoding="UTF-8" standalone="no"?>
<!DOCTYPE svg PUBLIC "-//W3C//DTD SVG 1.1//EN"
 "http://www.w3.org/Graphics/SVG/1.1/DTD/svg11.dtd">
<!-- Generated by graphviz version 2.43.0 (0)
 -->
<!-- Title: %3 Pages: 1 -->
<svg width="132pt" height="132pt"
 viewBox="0.00 0.00 132.00 132.00" xmlns="http://www.w3.org/2000/svg" xmlns:xlink="http://www.w3.org/1999/xlink">
<g id="graph0" class="graph" transform="scale(1 1) rotate(0) translate(4 128)">
<title>%3</title>
<polygon fill="white" stroke="transparent" points="-4,4 -4,-128 128,-128 128,4 -4,4"/>
<text text-anchor="middle" x="62" y="-108.8" font-family="Courier, monospace" font-size="14.00">Done assign n</text>
<!-- bb_0 -->
<g id="node1" class="node">
<title>bb_0</title>
<polygon fill="gray" stroke="transparent" points="14,-75.5 14,-96.5 111,-96.5 111,-75.5 14,-75.5"/>
<polygon fill="none" stroke="black" points="14,-75.5 14,-96.5 111,-96.5 111,-75.5 14,-75.5"/>
<text text-anchor="start" x="58" y="-82.3" font-family="Courier, monospace" font-size="14.00">0</text>
<polygon fill="none" stroke="black" points="14,-24.5 14,-75.5 111,-75.5 111,-24.5 14,-24.5"/>
<text text-anchor="start" x="17" y="-61.3" font-family="Courier, monospace" font-size="14.00">%cur_1 = 1</text>
<text text-anchor="start" x="17" y="-46.3" font-family="Courier, monospace" font-size="14.00">%prev_2 = 0</text>
<text text-anchor="start" x="17" y="-31.3" font-family="Courier, monospace" font-size="14.00">%n_3 = 10</text>
<polygon fill="none" stroke="black" points="14,-3.5 14,-24.5 111,-24.5 111,-3.5 14,-3.5"/>
<text text-anchor="start" x="17" y="-10.3" font-family="Courier, monospace" font-size="14.00">???</text>
</g>
</g>
</svg>
