<?xml version="1.0" encoding="UTF-8" standalone="no"?>
<!DOCTYPE svg PUBLIC "-//W3C//DTD SVG 1.1//EN"
 "http://www.w3.org/Graphics/SVG/1.1/DTD/svg11.dtd">
<!-- Generated by graphviz version 2.43.0 (0)
 -->
<!-- Title: %3 Pages: 1 -->
<svg width="124pt" height="207pt"
 viewBox="0.00 0.00 124.00 206.50" xmlns="http://www.w3.org/2000/svg" xmlns:xlink="http://www.w3.org/1999/xlink">
<g id="graph0" class="graph" transform="scale(1 1) rotate(0) translate(4 202.5)">
<title>%3</title>
<polygon fill="white" stroke="transparent" points="-4,4 -4,-202.5 120,-202.5 120,4 -4,4"/>
<text text-anchor="middle" x="58" y="-183.3" font-family="Courier, monospace" font-size="14.00">New Block: 1</text>
<!-- bb_0 -->
<g id="node1" class="node">
<title>bb_0</title>
<polygon fill="gray" stroke="transparent" points="10,-75.5 10,-96.5 107,-96.5 107,-75.5 10,-75.5"/>
<polygon fill="none" stroke="black" points="10,-75.5 10,-96.5 107,-96.5 107,-75.5 10,-75.5"/>
<text text-anchor="start" x="54" y="-82.3" font-family="Courier, monospace" font-size="14.00">0</text>
<polygon fill="none" stroke="black" points="10,-24.5 10,-75.5 107,-75.5 107,-24.5 10,-24.5"/>
<text text-anchor="start" x="13" y="-61.3" font-family="Courier, monospace" font-size="14.00">%cur_1 = 1</text>
<text text-anchor="start" x="13" y="-46.3" font-family="Courier, monospace" font-size="14.00">%prev_2 = 0</text>
<text text-anchor="start" x="13" y="-31.3" font-family="Courier, monospace" font-size="14.00">%n_3 = 10</text>
<polygon fill="none" stroke="black" points="10,-3.5 10,-24.5 107,-24.5 107,-3.5 10,-3.5"/>
<text text-anchor="start" x="13" y="-10.3" font-family="Courier, monospace" font-size="14.00">???</text>
</g>
<!-- bb_1 -->
<g id="node2" class="node">
<title>bb_1</title>
<polygon fill="gray" stroke="transparent" points="43,-150.5 43,-171.5 74,-171.5 74,-150.5 43,-150.5"/>
<polygon fill="none" stroke="black" points="43,-150.5 43,-171.5 74,-171.5 74,-150.5 43,-150.5"/>
<text text-anchor="start" x="54" y="-157.3" font-family="Courier, monospace" font-size="14.00">1</text>
<polygon fill="none" stroke="black" points="43,-144.5 43,-150.5 74,-150.5 74,-144.5 43,-144.5"/>
<polygon fill="none" stroke="black" points="43,-123.5 43,-144.5 74,-144.5 74,-123.5 43,-123.5"/>
<text text-anchor="start" x="46" y="-130.3" font-family="Courier, monospace" font-size="14.00">???</text>
</g>
</g>
</svg>
