<?xml version="1.0" encoding="UTF-8" standalone="no"?>
<!DOCTYPE svg PUBLIC "-//W3C//DTD SVG 1.1//EN"
 "http://www.w3.org/Graphics/SVG/1.1/DTD/svg11.dtd">
<!-- Generated by graphviz version 2.43.0 (0)
 -->
<!-- Title: %3 Pages: 1 -->
<svg width="297pt" height="132pt"
 viewBox="0.00 0.00 297.00 132.00" xmlns="http://www.w3.org/2000/svg" xmlns:xlink="http://www.w3.org/1999/xlink">
<g id="graph0" class="graph" transform="scale(1 1) rotate(0) translate(4 128)">
<title>%3</title>
<polygon fill="white" stroke="transparent" points="-4,4 -4,-128 293,-128 293,4 -4,4"/>
<text text-anchor="middle" x="144.5" y="-108.8" font-family="Courier, monospace" font-size="14.00">Finished block 0: Goto while cond</text>
<!-- bb_0 -->
<g id="node1" class="node">
<title>bb_0</title>
<polygon fill="green" stroke="transparent" points="51.5,-75.5 51.5,-96.5 148.5,-96.5 148.5,-75.5 51.5,-75.5"/>
<polygon fill="none" stroke="black" points="51.5,-75.5 51.5,-96.5 148.5,-96.5 148.5,-75.5 51.5,-75.5"/>
<text text-anchor="start" x="79" y="-82.3" font-family="Courier, monospace" font-size="14.00">0 ←[]</text>
<polygon fill="none" stroke="black" points="51.5,-24.5 51.5,-75.5 148.5,-75.5 148.5,-24.5 51.5,-24.5"/>
<text text-anchor="start" x="54.5" y="-61.3" font-family="Courier, monospace" font-size="14.00">%cur_1 = 1</text>
<text text-anchor="start" x="54.5" y="-46.3" font-family="Courier, monospace" font-size="14.00">%prev_2 = 0</text>
<text text-anchor="start" x="54.5" y="-31.3" font-family="Courier, monospace" font-size="14.00">%n_3 = 10</text>
<polygon fill="none" stroke="black" points="51.5,-3.5 51.5,-24.5 148.5,-24.5 148.5,-3.5 51.5,-3.5"/>
<text text-anchor="start" x="54.5" y="-10.3" font-family="Courier, monospace" font-size="14.00">GOTO 1</text>
</g>
<!-- bb_1 -->
<g id="node2" class="node">
<title>bb_1</title>
<polygon fill="gray" stroke="transparent" points="204,-53.5 204,-74.5 235,-74.5 235,-53.5 204,-53.5"/>
<polygon fill="none" stroke="black" points="204,-53.5 204,-74.5 235,-74.5 235,-53.5 204,-53.5"/>
<text text-anchor="start" x="215" y="-60.3" font-family="Courier, monospace" font-size="14.00">1</text>
<polygon fill="none" stroke="black" points="204,-47.5 204,-53.5 235,-53.5 235,-47.5 204,-47.5"/>
<polygon fill="none" stroke="black" points="204,-26.5 204,-47.5 235,-47.5 235,-26.5 204,-26.5"/>
<text text-anchor="start" x="207" y="-33.3" font-family="Courier, monospace" font-size="14.00">???</text>
</g>
<!-- bb_0&#45;&gt;bb_1 -->
<g id="edge1" class="edge">
<title>bb_0&#45;&gt;bb_1</title>
<path fill="none" stroke="black" d="M156.15,-50.5C164.81,-50.5 173.57,-50.5 181.65,-50.5"/>
<polygon fill="black" stroke="black" points="181.83,-54 191.83,-50.5 181.83,-47 181.83,-54"/>
</g>
</g>
</svg>
